Coordinates
version=1
nRows=26
nColumns=24
inDegrees=yes

Units are S.I. units (second, meters, Newtons, ...)
Angles are in degrees.

endheader
time	pelvis_tilt	pelvis_list	pelvis_rotation	pelvis_tx	pelvis_ty	pelvis_tz	hip_flexion_r	hip_adduction_r	hip_rotation_r	knee_angle_r	ankle_angle_r	subtalar_angle_r	mtp_angle_r	hip_flexion_l	hip_adduction_l	hip_rotation_l	knee_angle_l	ankle_angle_l	subtalar_angle_l	mtp_angle_l	lumbar_extension	lumbar_bending	lumbar_rotation
      2.22500000	      6.77322808	      0.72063816	      2.59838160	     -0.15973183	      1.02294983	      0.00044047	     17.12119481	     -2.97983568	     -1.22229841	    -32.38250738	      8.50225602	     -8.01692968	     19.23302282	     -8.13313333	      1.27603061	     -7.78159789	    -11.59849376	     15.61690894	      8.43003665	      5.01702043	    -20.67469421	      0.66843086	     -0.50205682
      2.23000000	      6.77426184	      0.82013359	      2.64309416	     -0.15437911	      1.02240759	      0.00072348	     17.04048374	     -3.08163860	     -1.25507322	    -30.69348452	      8.45462125	     -7.76064857	     19.25055285	     -8.60402239	      1.34954347	     -7.72455032	    -11.36112279	     15.82054818	      8.54160765	      4.98827635	    -20.66002659	      0.56059927	     -0.55432924
      2.23500000	      6.72937015	      0.92206524	      2.68350368	     -0.14901225	      1.02175003	      0.00101346	     16.99422461	     -3.18825513	     -1.28349198	    -28.99306885	      8.39462656	     -7.43779782	     19.26427917	     -9.03016564	      1.43098292	     -7.65112412	    -11.11514660	     16.01754414	      8.59553531	      4.97015326	    -20.59302607	      0.44786831	     -0.60788745
      2.24000000	      6.68135698	      1.04150229	      2.72795792	     -0.14366100	      1.02105585	      0.00129557	     16.92812643	     -3.31429442	     -1.30108247	    -27.26943969	      8.33490127	     -7.07009199	     19.27683158	     -9.44805220	      1.53090527	     -7.54338362	    -10.87746042	     16.19942177	      8.62845946	      4.95855274	    -20.52672645	      0.31851636	     -0.66025687
      2.24500000	      6.60511018	      1.16894870	      2.76460473	     -0.13830103	      1.02027427	      0.00157395	     16.87850701	     -3.44936023	     -1.30368539	    -25.54016888	      8.25625697	     -6.65652506	     19.28466209	     -9.84038702	      1.64489369	     -7.42228054	    -10.63209853	     16.37827453	      8.62394090	      4.95869489	    -20.42958772	      0.18049440	     -0.71668691
      2.25000000	      6.54984093	      1.31172857	      2.81103342	     -0.13293464	      1.01948251	      0.00184665	     16.78165685	     -3.60314147	     -1.31546167	    -23.79488499	      8.18808589	     -6.19122375	     19.29172974	    -10.25507833	      1.77124574	     -7.27127853	    -10.38903983	     16.54723214	      8.59689493	      4.96730219	    -20.35641306	      0.03000465	     -0.77014998
      2.25500000	      6.45805262	      1.46750637	      2.84978093	     -0.12756188	      1.01859444	      0.00210907	     16.71633409	     -3.77228615	     -1.31295726	    -22.06033212	      8.09424076	     -5.69227400	     19.29315578	    -10.63278094	      1.91741033	     -7.10630252	    -10.14388071	     16.71155640	      8.53702926	      4.98596569	    -20.24375894	     -0.13381269	     -0.82726254
      2.26000000	      6.37549218	      1.63558863	      2.89837304	     -0.12218783	      1.01767496	      0.00236220	     16.62415642	     -3.95719700	     -1.31958798	    -20.32882026	      8.00050021	     -5.16103790	     19.29012888	    -11.01856214	      2.07345870	     -6.91205426	     -9.90327656	     16.86985776	      8.45541821	      5.01541559	    -20.14387504	     -0.30695072	     -0.89234434
      2.26500000	      6.27467608	      1.81399182	      2.95049758	     -0.11678456	      1.01669874	      0.00260465	     16.54035412	     -4.15582304	     -1.33267872	    -18.61530576	      7.89107956	     -4.61261741	     19.27784490	    -11.38599083	      2.24060614	     -6.70077944	     -9.66488049	     17.02118901	      8.35544579	      5.05705475	    -20.02071311	     -0.48851548	     -0.96187322
      2.27000000	      6.18881420	      1.99235645	      3.00924656	     -0.11134650	      1.01569349	      0.00283431	     16.42766091	     -4.35658773	     -1.37069569	    -16.92281314	      7.77050709	     -4.03950560	     19.25499595	    -11.77174899	      2.40456462	     -6.47617078	     -9.42862927	     17.17189321	      8.24123310	      5.11350945	    -19.91145224	     -0.66435283	     -1.03012821
      2.27500000	      6.09759851	      2.18089772	      3.07096689	     -0.10587659	      1.01464746	      0.00306011	     16.31743984	     -4.56827905	     -1.42048253	    -15.27369504	      7.63633256	     -3.47630043	     19.22116605	    -12.15644749	      2.57744745	     -6.24609847	     -9.18670589	     17.31649251	      8.12649571	      5.18044361	    -19.79565399	     -0.84892720	     -1.11245817
      2.28000000	      6.00889228	      2.37281472	      3.14087276	     -0.10038267	      1.01355696	      0.00330024	     16.20399183	     -4.78248247	     -1.49682820	    -13.67903681	      7.49496089	     -2.91329989	     19.17110187	    -12.53700023	      2.74711535	     -6.01145704	     -8.96461155	     17.46591762	      8.00873473	      5.26499974	    -19.68065402	     -1.03580427	     -1.18566720
      2.28500000	      5.92152274	      2.55895741	      3.21448544	     -0.09482444	      1.01243544	      0.00353474	     16.09020618	     -4.98857131	     -1.60409895	    -12.15113874	      7.33891021	     -2.36858916	     19.10642679	    -12.92690168	      2.90803974	     -5.77984887	     -8.73451538	     17.61486827	      7.89938914	      5.35956372	    -19.56167695	     -1.21220152	     -1.27103639
      2.29000000	      5.86717874	      2.74014631	      3.29197658	     -0.08921921	      1.01131901	      0.00377924	     15.94356622	     -5.18434379	     -1.74486069	    -10.69743238	      7.17744669	     -1.84204671	     19.02610452	    -13.35275223	      3.05645025	     -5.56009889	     -8.51149649	     17.76603768	      7.80903949	      5.46468256	    -19.47579927	     -1.37940338	     -1.35621179
      2.29500000	      5.81061787	      2.91133379	      3.37641350	     -0.08355998	      1.01017368	      0.00404974	     15.81057372	     -5.36333244	     -1.92052129	     -9.34018546	      7.00902927	     -1.35207267	     18.92610145	    -13.77296784	      3.18625793	     -5.35535154	     -8.30116887	     17.92677720	      7.74029587	      5.58244186	    -19.38149339	     -1.53507096	     -1.43591135
      2.30000000	      5.76451826	      3.06576920	      3.46590009	     -0.07783230	      1.00902709	      0.00433124	     15.67658387	     -5.51732563	     -2.12468021	     -8.08451739	      6.83081724	     -0.91101798	     18.81064698	    -14.20505223	      3.29211982	     -5.16677156	     -8.09736346	     18.08975827	      7.69737212	      5.70721352	    -19.29141760	     -1.67013148	     -1.52009540
      2.30500000	      5.75863955	      3.19513593	      3.52250570	     -0.07201114	      1.00789457	      0.00468617	     15.52619708	     -5.62731789	     -2.35358892	     -6.95848141	      6.70989510	     -0.40985504	     18.39693517	    -14.68850329	      3.36930954	     -5.08068720	     -7.88867848	     18.22126599	      7.72535216	      6.09757054	    -19.23596750	     -1.78476774	     -1.55321597
      2.31000000	      5.71565687	      3.31408371	      3.64285689	     -0.06622815	      1.00670635	      0.00500623	     15.42210244	     -5.72753453	     -2.58295311	     -5.93634672	      6.49430360	     -0.20284450	     18.28684472	    -15.10279345	      3.41839444	     -4.88138520	     -7.72973467	     18.43196928	      7.69816666	      6.18469534	    -19.14413581	     -1.87604514	     -1.65619169
      2.31500000	      5.74840764	      3.39923742	      3.73534395	     -0.06032807	      1.00560021	      0.00536286	     15.25951786	     -5.77625636	     -2.85315619	     -5.04781972	      6.31028382	      0.05940070	     18.17468549	    -15.61523437	      3.42973127	     -4.78058643	     -7.55042875	     18.62199154	      7.74191495	      6.28515591	    -19.12293908	     -1.92787611	     -1.72056400
      2.32000000	      5.79033364	      3.46040520	      3.82569996	     -0.05437973	      1.00449395	      0.00577924	     15.11381829	     -5.78645702	     -3.11364971	     -4.30023922	      6.12061070	      0.22725395	     18.05325342	    -16.12920556	      3.40742090	     -4.71630694	     -7.39093824	     18.82808266	      7.82897192	      6.39495571	    -19.10513011	     -1.95817597	     -1.77198364
      2.32500000	      5.83224128	      3.49171372	      3.91545490	     -0.04838334	      1.00338970	      0.00622220	     14.99512127	     -5.75684903	     -3.36376292	     -3.69663443	      5.91944264	      0.31240057	     17.93375471	    -16.63459666	      3.35009652	     -4.68106797	     -7.24935235	     19.04285964	      7.93628982	      6.50675974	    -19.08004757	     -1.95585283	     -1.81358502
      2.33000000	      5.93076750	      3.50575788	      3.97455593	     -0.04233414	      1.00234922	      0.00670167	     14.84647429	     -5.69458194	     -3.59260878	     -3.23812803	      5.74716586	      0.37598661	     17.76321764	    -17.20047604	      3.27633311	     -4.71900284	     -7.11441502	     19.24609315	      8.09553360	      6.67904647	    -19.11064850	     -1.93463434	     -1.80882257
      2.33500000	      5.93182619	      3.49323210	      4.07370759	     -0.03633510	      1.00119454	      0.00714935	     14.83114259	     -5.61321472	     -3.79541910	     -2.92330940	      5.48832210	      0.25243482	     17.67884949	    -17.61805834	      3.17182498	     -4.69195518	     -7.05099170	     19.47345434	      8.15913858	      6.76145846	    -19.03705441	     -1.88084616	     -1.82996172
      2.34000000	      6.09686122	      3.44263916	      4.12636571	     -0.03019493	      1.00025297	      0.00768196	     14.65236167	     -5.46523595	     -3.96478813	     -2.72959766	      5.28490814	      0.10543455	     17.54887934	    -18.25020553	      3.02066120	     -4.79483672	     -6.92482647	     19.67872619	      8.38500394	      6.95862255	    -19.12859422	     -1.78396676	     -1.82116545
      2.34500000	      6.17350764	      3.37871221	      4.22268903	     -0.02413333	      0.99923610	      0.00815731	     14.60185897	     -5.31825459	     -4.11171713	     -2.68746152	      5.01051877	     -0.18925102	     17.47003663	    -18.74073934	      2.85244465	     -4.80872378	     -6.87163089	     19.88192336	      8.49948260	      7.08226623	    -19.12968168	     -1.66438870	     -1.85487307
      2.35000000	      6.28803534	      3.29107830	      4.26956686	     -0.01801977	      0.99827225	      0.00869138	     14.52818574	     -5.13149521	     -4.19045088	     -2.74732401	      4.70911424	     -0.52573443	     17.41308835	    -19.26688003	      2.67167006	     -4.92264910	     -6.83466843	     20.10447204	      8.65619814	      7.26939329	    -19.16487218	     -1.52709413	     -1.79754609
